HIERARCHY
ROOT Hips
{
	OFFSET 0.000000 8.830580 0.000000
	CHANNELS 6 Xposition Yposition Zposition Zrotation Yrotation Xrotation 
	JOINT Spine
	{
		OFFSET 0.000000 0.010000 0.000000
		CHANNELS 3 Zrotation Yrotation Xrotation
		JOINT Spine1
		{
			OFFSET 0.000000 2.459130 0.000000
			CHANNELS 3 Zrotation Yrotation Xrotation
			JOINT Neck
			{
				OFFSET 0.000000 2.484630 0.000000
				CHANNELS 3 Zrotation Yrotation Xrotation
				JOINT Head_virtual
				{
					OFFSET 0.000000 0.000000 0.000000
					CHANNELS 3 Zrotation Yrotation Xrotation
					JOINT Head
					{
						OFFSET 0.000000 0.927525 0.000000
						CHANNELS 3 Zrotation Yrotation Xrotation
						End Site
						{
							OFFSET 0.000000 0.000000 0.000000
						}
					}
				}
				JOINT LeftUpArm_virtual
				{
					OFFSET 0.000000 0.000000 0.000000
					CHANNELS 3 Zrotation Yrotation Xrotation
					JOINT LeftUpArm
					{
						OFFSET 1.248820 0.000000 0.000000
						CHANNELS 3 Zrotation Yrotation Xrotation
						JOINT LeftForeArm
						{
							OFFSET 2.597580 0.000000 0.000000
							CHANNELS 3 Zrotation Yrotation Xrotation
							JOINT LeftHand
							{
								OFFSET 2.455420 0.000000 0.000000
								CHANNELS 3 Zrotation Yrotation Xrotation
								End Site
								{
									OFFSET 0.000000 0.000000 0.000000
								}
							}
						}
					}
				}
				JOINT RightUpArm_virtual
				{
					OFFSET -0.000000 -0.000000 -0.000000
					CHANNELS 3 Zrotation Yrotation Xrotation
					JOINT RightUpArm
					{
						OFFSET -1.248820 -0.000000 -0.000000
						CHANNELS 3 Zrotation Yrotation Xrotation
						JOINT RightForeArm
						{
							OFFSET -2.597580 -0.000000 -0.000000
							CHANNELS 3 Zrotation Yrotation Xrotation
							JOINT RightHand
							{
								OFFSET -2.455420 -0.000000 -0.000000
								CHANNELS 3 Zrotation Yrotation Xrotation
								End Site
								{
									OFFSET 0.000000 0.000000 0.000000
								}
							}
						}
					}
				}
			}
		}
	}
	JOINT LeftUpLeg
	{
		OFFSET 1.271939 0.000000 0.000000
		CHANNELS 3 Zrotation Yrotation Xrotation
		JOINT LeftLowLeg
		{
			OFFSET 0.000000 -4.342910 0.000000
			CHANNELS 3 Zrotation Yrotation Xrotation
			JOINT LeftFoot
			{
				OFFSET 0.000000 -4.487670 0.000000
				CHANNELS 3 Zrotation Yrotation Xrotation
				JOINT LeftToeBase
				{
					OFFSET 0.000000 0.000000 1.515070
					CHANNELS 3 Zrotation Yrotation Xrotation
					End Site
					{
						OFFSET 0.000000 0.000000 0.000000
					}
				}
			}
		}
	}
	JOINT RightUpLeg
	{
		OFFSET -1.271939 0.000000 0.000000
		CHANNELS 3 Zrotation Yrotation Xrotation
		JOINT RightLowLeg
		{
			OFFSET 0.000000 -4.342910 0.000000
			CHANNELS 3 Zrotation Yrotation Xrotation
			JOINT RightFoot
			{
				OFFSET 0.000000 -4.487670 0.000000
				CHANNELS 3 Zrotation Yrotation Xrotation
				JOINT RightToeBase
				{
					OFFSET 0.000000 0.000000 1.515070
					CHANNELS 3 Zrotation Yrotation Xrotation
					End Site
					{
						OFFSET 0.000000 0.000000 0.000000
					}
				}
			}
		}
	}
}
MOTION
Frames: 8
Frame Time: 0.041667
-18.935201 9.222586 39.394816 -175.607743 -1.989184 -173.568417 2.784711 -2.214374 -8.484232 0.195279 -2.492629 2.958051 0.000000 0.000000 0.000000 -3.707924 0.708698 -6.958596 8.252218 6.202315 -48.946913 -0.970438 14.550800 -3.300980 -10.892100 -5.659640 -29.677999 0.000000 -19.085199 0.000000 29.963400 6.805710 22.407301 8.788810 -11.111700 -0.591942 8.680420 1.611690 -35.937500 0.000000 22.021601 0.000000 -20.136700 -3.631220 28.235800 4.473563 -1.588826 -5.846666 0.000000 0.000000 7.268470 8.450847 1.066157 7.485913 0.000000 0.000000 -36.828199 3.019205 5.912465 -3.109377 0.000000 0.000000 6.537810 8.445155 -7.720033 8.618411 0.000000 0.000000 -27.900800 
-18.935201 9.222586 39.394816 -175.607743 -1.989184 -173.568417 2.784711 -2.214374 -8.484232 0.195279 -2.492629 2.958051 0.000000 0.000000 0.000000 -3.707924 0.708698 -6.958596 8.252218 6.202315 -48.946913 -0.970438 14.550800 -3.300980 -10.892100 -5.659640 -29.677999 0.000000 -19.085199 0.000000 29.963400 6.805710 22.407301 8.788810 -11.111700 -0.591942 8.680420 1.611690 -35.937500 0.000000 22.021601 0.000000 -20.136700 -3.631220 28.235800 4.473563 -1.588826 -5.846666 0.000000 0.000000 7.268470 8.450847 1.066157 7.485913 0.000000 0.000000 -36.828199 3.019205 5.912465 -3.109377 0.000000 0.000000 6.537810 8.445155 -7.720033 8.618411 0.000000 0.000000 -27.900800 
-18.935725 9.222727 39.395358 -175.610137 -1.983595 -173.549713 2.766197 -2.218923 -8.485940 0.235517 -2.492502 2.943157 0.000000 0.000000 0.000000 -3.733575 0.714531 -6.972126 8.273191 6.175813 -48.935201 -0.987867 14.558100 -3.321500 -10.909500 -5.636330 -29.805500 0.000000 -19.102600 0.000000 29.791599 6.614590 22.520000 8.755840 -11.108400 -0.584131 8.715480 1.584930 -35.953999 0.000000 22.020300 0.000000 -20.153200 -3.625450 28.232901 4.467979 -1.592169 -5.867463 0.000000 0.000000 7.269210 8.456262 1.076793 7.491010 0.000000 0.000000 -36.808201 3.010902 5.929310 -3.134405 0.000000 0.000000 6.541510 8.448703 -7.730195 8.621154 0.000000 0.000000 -27.923100 
-18.936073 9.222776 39.395525 -175.607667 -1.968799 -173.547201 2.771980 -2.215868 -8.485892 0.229322 -2.490873 2.948318 0.000000 0.000000 0.000000 -3.743263 0.724934 -6.999187 8.298319 6.167375 -48.924829 -1.002640 14.547300 -3.325550 -10.854000 -5.603630 -29.646400 0.000000 -19.081100 0.000000 29.759001 6.609460 22.523399 8.769590 -11.125400 -0.580074 8.731390 1.595450 -35.979198 0.000000 22.040199 0.000000 -20.181000 -3.639490 28.216999 4.467726 -1.582601 -5.863504 0.000000 0.000000 7.261380 8.457313 1.078190 7.491384 0.000000 0.000000 -36.810801 3.009387 5.921017 -3.142391 0.000000 0.000000 6.546550 8.443961 -7.712091 8.625748 0.000000 0.000000 -27.903800 
-18.936764 9.222691 39.395567 -175.601158 -1.940143 -173.547597 2.784512 -2.211266 -8.484575 0.218477 -2.489333 2.957824 0.000000 0.000000 0.000000 -3.762990 0.731635 -7.023526 8.353959 6.141344 -48.933058 -1.007380 14.526200 -3.297500 -10.805800 -5.552740 -29.577600 0.000000 -19.049601 0.000000 29.787600 6.636100 22.408400 8.776220 -11.147200 -0.591594 8.789960 1.620360 -36.000401 0.000000 22.054100 0.000000 -20.108400 -3.620610 28.172800 4.468805 -1.563943 -5.861861 0.000000 0.000000 7.275050 8.438903 1.093942 7.484672 0.000000 0.000000 -36.822700 3.009024 5.945685 -3.141677 0.000000 0.000000 6.538230 8.447100 -7.712505 8.636596 0.000000 0.000000 -27.903500 
-18.937073 9.222657 39.395305 -175.600435 -1.918957 -173.555490 2.782209 -2.202618 -8.479881 0.216042 -2.480296 2.962167 0.000000 0.000000 0.000000 -3.725061 0.700557 -7.027537 8.335859 6.143956 -48.928823 -0.991924 14.527800 -3.306290 -10.842900 -5.556050 -29.734699 0.000000 -19.070801 0.000000 29.804001 6.619250 22.428900 8.792830 -11.150300 -0.604316 8.783380 1.621030 -35.958302 0.000000 22.020599 0.000000 -20.082899 -3.656390 28.222401 4.465244 -1.574063 -5.846724 0.000000 0.000000 7.272450 8.451405 1.113480 7.478340 0.000000 0.000000 -36.801800 3.005652 5.929959 -3.130780 0.000000 0.000000 6.529970 8.449497 -7.675487 8.646282 0.000000 0.000000 -27.916600 
-18.937073 9.222657 39.395305 -175.600435 -1.918957 -173.555490 2.782209 -2.202618 -8.479881 0.216042 -2.480296 2.962167 0.000000 0.000000 0.000000 -3.725061 0.700557 -7.027537 8.335859 6.143956 -48.928823 -0.991924 14.527800 -3.306290 -10.842900 -5.556050 -29.734699 0.000000 -19.070801 0.000000 29.804001 6.619250 22.428900 8.792830 -11.150300 -0.604316 8.783380 1.621030 -35.958302 0.000000 22.020599 0.000000 -20.082899 -3.656390 28.222401 4.465244 -1.574063 -5.846724 0.000000 0.000000 7.272450 8.451405 1.113480 7.478340 0.000000 0.000000 -36.801800 3.005652 5.929959 -3.130780 0.000000 0.000000 6.529970 8.449497 -7.675487 8.646282 0.000000 0.000000 -27.916600 
-18.937370 9.222655 39.394953 -175.599729 -1.885960 -173.558701 2.766898 -2.191002 -8.480645 0.242753 -2.465042 2.959281 0.000000 0.000000 0.000000 -3.725269 0.683843 -7.011974 8.340007 6.124201 -48.926588 -1.012560 14.532800 -3.320710 -10.841600 -5.566300 -29.804399 0.000000 -19.086100 0.000000 29.782900 6.610190 22.488899 8.797970 -11.135500 -0.560729 8.779420 1.601650 -35.963699 0.000000 22.006800 0.000000 -20.112101 -3.677300 28.200100 4.460585 -1.555739 -5.828746 0.000000 0.000000 7.262550 8.455172 1.124031 7.477967 0.000000 0.000000 -36.797199 3.002807 5.936398 -3.129379 0.000000 0.000000 6.531230 8.430939 -7.663649 8.652156 0.000000 0.000000 -27.895700 
